<?xml version="1.0" encoding="UTF-8"?>
<svg id="Layer_1" data-name="Layer 1" xmlns="http://www.w3.org/2000/svg" viewBox="0 0 1584 396.84">
  <defs>
    <style>
      .cls-1 {
        fill: #fff;
      }

      .cls-2 {
        fill: #c10230;
      }
    </style>
  </defs>
  <g>
    <path class="cls-1" d="M0,0V290.9c0,55.5,69.41,94.55,136.58,105.94,67.17-11.39,136.58-50.44,136.58-105.94V0H0ZM260.83,290.9c0,27.09-20.6,47.28-37.87,59.42-22.54,15.88-53.92,28.22-86.38,34-32.44-5.78-63.82-18.12-86.38-34-17.27-12.15-37.87-32.34-37.87-59.42v-6.58h31.72v23.37c0,.65,.53,1.2,1.2,1.2h21.34c.65,0,1.2-.55,1.2-1.2v-23.37h56.49v23.37c0,.65,.53,1.2,1.2,1.2h21.32c.67,0,1.22-.55,1.22-1.2v-23.37h56.49v23.37c0,.65,.53,1.2,1.2,1.2h21.32c.67,0,1.2-.55,1.2-1.2v-23.37h32.6v6.58Zm-113.47-42.15c-2.35-1.22-3.8-3.61-3.8-6.26V127.77c.12-2.55,2.02-4.63,4.47-4.95h56.36c2.58,.34,4.53,2.56,4.53,5.18v114.49c0,2.65-1.45,5.04-3.78,6.26-.39,.19-.64,.62-.64,1.06v21.13h-47.61l-8.88,8.43v-29.54c0-.46-.27-.87-.65-1.08ZM65.24,108.47c3.15-15.49,11.47-29.72,23.46-40.13,13.15-11.42,30-17.72,47.44-17.72s34.28,6.29,47.44,17.72c11.99,10.41,20.31,24.65,23.48,40.13H65.24Zm2.58,14.36h56.35c2.58,.34,4.53,2.56,4.53,5.18v114.49c0,2.65-1.45,5.04-3.78,6.26-.39,.19-.64,.62-.64,1.06v21.13h-47.61l-8.88,8.43v-29.54c0-.46-.27-.87-.65-1.08-2.35-1.22-3.8-3.61-3.8-6.26V127.77c.12-2.55,2.02-4.63,4.49-4.95Zm193.01,148.12h-23.71v.02l-8.89,8.42v-29.56c0-.44-.25-.85-.64-1.06-2.35-1.22-3.8-3.61-3.8-6.26l-.02-114.72c.14-2.53,2.03-4.61,4.53-4.95,.6-.09,1.04-.6,1.04-1.2v-11.95c0-.67-.55-1.2-1.2-1.2h-8.63c-3.31-19.09-13.21-36.61-27.92-49.38-15.36-13.37-35.08-20.72-55.46-20.72s-40.08,7.35-55.46,20.72c-14.69,12.76-24.61,30.29-27.92,49.38h-8.63c-.65,0-1.2,.53-1.2,1.2v11.95c0,.6,.44,1.11,1.04,1.2,2.56,.35,4.51,2.58,4.51,5.18v114.49c0,2.65-1.47,5.04-3.8,6.26-.39,.19-.64,.62-.64,1.06v21.13H12.32V12.34h248.51V270.94Z"/>
    <path d="M207.05,108.47H65.24c3.15-15.49,11.47-29.72,23.46-40.13,13.15-11.42,30-17.72,47.44-17.72s34.28,6.29,47.44,17.72c11.99,10.41,20.31,24.65,23.48,40.13Z"/>
    <path d="M128.69,128v114.49c0,2.65-1.45,5.04-3.78,6.26-.39,.19-.64,.62-.64,1.06v21.13h-47.61l-8.88,8.43v-29.54c0-.46-.27-.87-.65-1.08-2.35-1.22-3.8-3.61-3.8-6.26V127.77c.12-2.55,2.02-4.63,4.49-4.95h56.35c2.58,.34,4.53,2.56,4.53,5.18Z"/>
    <path d="M208.92,128v114.49c0,2.65-1.45,5.04-3.78,6.26-.39,.19-.64,.62-.64,1.06v21.13h-47.61l-8.88,8.43v-29.54c0-.46-.27-.87-.65-1.08-2.35-1.22-3.8-3.61-3.8-6.26V127.77c.12-2.55,2.02-4.63,4.47-4.95h56.36c2.58,.34,4.53,2.56,4.53,5.18Z"/>
    <path class="cls-2" d="M228.23,284.33v23.37c0,.65-.53,1.2-1.2,1.2h-21.32c-.67,0-1.2-.55-1.2-1.2v-23.37h-56.49v23.37c0,.65-.55,1.2-1.22,1.2h-21.32c-.67,0-1.2-.55-1.2-1.2v-23.37h-56.49v23.37c0,.65-.55,1.2-1.2,1.2h-21.34c-.67,0-1.2-.55-1.2-1.2v-23.37H12.32v6.58c0,27.09,20.6,47.28,37.87,59.42,22.56,15.88,53.94,28.22,86.38,34,32.46-5.78,63.84-18.12,86.38-34,17.27-12.15,37.87-32.34,37.87-59.42v-6.58h-32.6Zm-124.68,70.26h-16.71v-1.63c3.25-.12,4.79-.46,4.79-2.02v-16.9c0-1.27-.23-2.05-.8-2.6-.69-.67-1.91-.97-3.91-.97h-.3v-1.57l12.09-.85v22.9c0,1.56,1.56,1.89,4.83,2.02v1.63Zm28.08-23.66l-7.46,13.22-5.39,10.82h-5.52v-1.47l14.21-19.54,.18-.25h-9.58c-3.82,0-4.67,.92-5.43,4.1h-1.52l.25-9.69h20.26v2.79Zm17.47,24.38c-7.14,0-11.23-2.46-11.23-6.77,0-2.65,1.75-4.69,5.22-6.06l.28-.11-.27-.16c-2.93-1.7-4.42-3.87-4.42-6.49,0-5.04,4.05-8.27,10.32-8.27,6.74,0,9.81,3.29,9.81,6.35,0,2.42-1.77,4.31-5.25,5.62l-.35,.14,.35,.14c4.1,1.77,6.1,4.15,6.1,7.3,0,4.74-4.54,8.31-10.57,8.31Zm28.98-.09c-6.56,0-10.48-2.26-10.48-6.08,0-2.19,1.52-3.66,3.78-3.66s3.39,1.79,3.39,3.54c0,1.47-.99,2.74-1.98,3.24l-.21,.11,.19,.16c.6,.46,2.46,.92,3.73,.92,3.68,0,5.53-2.21,5.53-6.56,0-3.91-2.03-6.15-5.57-6.15-2.35,0-3.94,.6-5.85,1.64l-1.31-1.04,.55-13.19h17.47l-.41,5.37h-14.59l-.3,6.21-.02,.27,.23-.11c1.98-.9,3.85-1.27,6.28-1.27,4.88,0,10.1,2.07,10.1,7.89,0,4.21-3.29,8.73-10.54,8.73Z"/>
    <path d="M260.83,12.34V270.94h-23.71v.02l-8.89,8.42v-29.56c0-.44-.25-.85-.64-1.06-2.35-1.22-3.8-3.61-3.8-6.26l-.02-114.72c.14-2.53,2.03-4.61,4.53-4.95,.6-.09,1.04-.6,1.04-1.2v-11.95c0-.67-.55-1.2-1.2-1.2h-8.63c-3.31-19.09-13.21-36.61-27.92-49.38-15.36-13.37-35.08-20.72-55.46-20.72s-40.08,7.35-55.46,20.72c-14.69,12.76-24.61,30.29-27.92,49.38h-8.63c-.65,0-1.2,.53-1.2,1.2v11.95c0,.6,.44,1.11,1.04,1.2,2.56,.35,4.51,2.58,4.51,5.18v114.49c0,2.65-1.47,5.04-3.8,6.26-.39,.19-.64,.62-.64,1.06v21.13H12.32V12.34h248.51Z"/>
    <path class="cls-1" d="M103.55,352.96v1.63h-16.71v-1.63c3.25-.12,4.79-.46,4.79-2.02v-16.9c0-1.27-.23-2.05-.8-2.6-.69-.67-1.91-.97-3.91-.97h-.3v-1.57l12.09-.85v22.9c0,1.56,1.56,1.89,4.83,2.02Z"/>
    <path class="cls-1" d="M131.63,328.14v2.79l-7.46,13.22-5.39,10.82h-5.52v-1.47l14.21-19.54,.18-.25h-9.58c-3.82,0-4.67,.92-5.43,4.1h-1.52l.25-9.69h20.26Z"/>
    <path class="cls-1" d="M153.57,339.7l-.35-.14,.35-.14c3.48-1.31,5.25-3.2,5.25-5.62,0-3.06-3.08-6.35-9.81-6.35-6.28,0-10.32,3.24-10.32,8.27,0,2.62,1.49,4.79,4.42,6.49l.27,.16-.28,.11c-3.47,1.38-5.22,3.41-5.22,6.06,0,4.31,4.08,6.77,11.23,6.77,6.03,0,10.57-3.57,10.57-8.31,0-3.15-2-5.53-6.1-7.3Zm-5.16-10.47c3.11,0,5.11,1.79,5.11,4.56,0,1.94-.6,3.45-2,5.02l-.07,.07-.11-.04c-3.48-1.27-6.9-2.79-6.9-5.92,0-2.42,2-3.7,3.96-3.7Zm.64,24.29c-3.5,0-5.66-2.88-5.66-5.53,0-1.77,.58-3.22,1.87-4.6l.07-.09,.11,.05c.41,.18,.9,.35,1.43,.49,5.04,1.68,6.82,3.11,6.82,5.5,0,2.53-1.82,4.17-4.65,4.17Z"/>
    <path class="cls-2" d="M153.51,333.8c0,1.94-.6,3.45-2,5.02l-.07,.07-.11-.04c-3.48-1.27-6.9-2.79-6.9-5.92,0-2.42,2-3.7,3.96-3.7,3.11,0,5.11,1.79,5.11,4.56Z"/>
    <path class="cls-2" d="M153.69,349.35c0,2.53-1.82,4.17-4.65,4.17-3.5,0-5.66-2.88-5.66-5.53,0-1.77,.58-3.22,1.87-4.6l.07-.09,.11,.05c.41,.18,.9,.35,1.43,.49,5.04,1.68,6.82,3.11,6.82,5.5Z"/>
    <path class="cls-1" d="M188.61,346.49c0,4.21-3.29,8.73-10.54,8.73-6.56,0-10.48-2.26-10.48-6.08,0-2.19,1.52-3.66,3.78-3.66s3.39,1.79,3.39,3.54c0,1.47-.99,2.74-1.98,3.24l-.21,.11,.19,.16c.6,.46,2.46,.92,3.73,.92,3.68,0,5.53-2.21,5.53-6.56,0-3.91-2.03-6.15-5.57-6.15-2.35,0-3.94,.6-5.85,1.64l-1.31-1.04,.55-13.19h17.47l-.41,5.37h-14.59l-.3,6.21-.02,.27,.23-.11c1.98-.9,3.85-1.27,6.28-1.27,4.88,0,10.1,2.07,10.1,7.89Z"/>
    <path d="M253.97,367.29c0,3.42-2.68,6.11-6.18,6.11s-6.22-2.68-6.22-6.11,2.76-6.03,6.22-6.03,6.18,2.69,6.18,6.03Zm-10.85,0c0,2.69,1.99,4.82,4.71,4.82s4.6-2.13,4.6-4.78-1.95-4.85-4.63-4.85-4.67,2.17-4.67,4.82Zm3.71,3.17h-1.4v-6.03c.55-.11,1.32-.19,2.32-.19,1.14,0,1.65,.19,2.1,.44,.33,.25,.59,.73,.59,1.32,0,.66-.52,1.18-1.25,1.4v.07c.59,.22,.92,.66,1.1,1.47,.18,.92,.29,1.29,.44,1.51h-1.51c-.18-.22-.29-.77-.48-1.47-.11-.66-.48-.96-1.25-.96h-.66v2.43Zm.04-3.42h.66c.77,0,1.4-.26,1.4-.88,0-.55-.41-.92-1.29-.92-.37,0-.63,.04-.77,.07v1.73Z"/>
  </g>
  <g>
    <path d="M356.27,86.91c0-22.45,16.67-39,38.45-39,7,0,13.89,2.22,18.45,4.78l3.22-4.78h4.44v26.33h-5c-4.44-13.45-11.78-21.56-21.45-21.56-11.33,0-21.33,11-21.33,32.45s12.11,32.56,23.78,32.56c10.33,0,17.56-6,22.78-16.56l4.22,2c-5.11,11.89-15.11,21.44-31,21.44-23.11,0-36.56-15.78-36.56-37.67Z"/>
    <path d="M431.83,97.24c0-16.11,10.22-26.78,26.33-26.78s26.11,10.22,26.11,26.33-10.11,27.11-26.11,27.11-26.33-10.45-26.33-26.67Zm38.22-.22c0-15.33-4.22-22.22-12.44-22.22s-11.56,6.89-11.56,22.22,4.33,22.45,12.56,22.45,11.44-7,11.44-22.45Z"/>
    <path d="M491.05,118.8c6.33-.11,7.78-1.22,7.78-3.89V55.68c0-3.33-1.67-5.33-8.22-5.44v-4l21.45-.89V114.91c0,2.67,1.33,3.78,7.78,3.89v4h-28.78v-4Z"/>
    <path d="M524.93,118.8c6.33-.11,7.78-1.22,7.78-3.89V55.68c0-3.33-1.67-5.33-8.22-5.44v-4l21.45-.89V114.91c0,2.67,1.33,3.78,7.78,3.89v4h-28.78v-4Z"/>
    <path d="M559.82,97.8c0-16.44,10.22-27.33,25.56-27.33s22.89,12.22,22,26.11h-33.56v.67c0,11.89,5.33,20.11,15.78,20.11,5.89,0,10.89-3.56,15.22-9.11l2.78,2.33c-4.67,7.56-11.11,13.33-22.22,13.33-16.45,0-25.56-10.22-25.56-26.11Zm14.11-5.22l19.78-.33c1.11-9.56-2-17.45-9.11-17.45-6.11,0-9.89,5.89-10.67,17.78Z"/>
    <path d="M648.6,72.57c2.56-5,5.89-9.45,11.67-9.45,4.33,0,6.78,2.56,6.78,5.89,0,2.78-2,5.22-5.11,5.22-2.56,0-4.89-1.89-4.89-5.56-2.22,.78-4.22,2.89-5.33,5.33,5.11,2.78,8.33,7.44,8.33,13.78,0,10.78-9,17.45-21.45,17.45-2.11,0-4.11-.22-6.11-.56-4.11,1.56-6.22,3-6.22,5,0,2.22,2.22,4,12,4h5c14.89,0,21.67,4.11,21.67,13.78s-10.22,18.11-28,18.11c-13.78,0-23-5.11-23-11.78,0-4.89,4.44-9.11,13-10.33v-.56c-6.89-2.11-9.11-5.11-9.11-9.45,0-4.11,3.11-7.33,9.33-10.22-6.11-2.55-10.22-7.44-10.22-15,0-10.67,9.11-17.33,21.67-17.33,3.56,0,7,.56,10,1.67Zm7,59.22c0-4.22-2.89-6.67-16.11-6.67h-9.22c-4.67,1.33-7.45,3.56-7.45,7.45,0,4.89,5.45,8.89,17,8.89,9.56,0,15.78-4,15.78-9.67Zm-8.44-43.78c0-8.22-3.33-13-9.11-13s-8.11,3.67-8.11,13,3.45,13.11,9.11,13.11,8.11-3.67,8.11-13.11Z"/>
    <path d="M671.37,97.8c0-16.44,10.22-27.33,25.56-27.33s22.89,12.22,22,26.11h-33.56v.67c0,11.89,5.33,20.11,15.78,20.11,5.89,0,10.89-3.56,15.22-9.11l2.78,2.33c-4.67,7.56-11.11,13.33-22.22,13.33-16.45,0-25.56-10.22-25.56-26.11Zm14.11-5.22l19.78-.33c1.11-9.56-2-17.45-9.11-17.45-6.11,0-9.89,5.89-10.67,17.78Z"/>
    <path d="M748.81,97.24c0-16.11,10.22-26.78,26.33-26.78s26.11,10.22,26.11,26.33-10.11,27.11-26.11,27.11-26.33-10.45-26.33-26.67Zm38.22-.22c0-15.33-4.22-22.22-12.44-22.22s-11.56,6.89-11.56,22.22,4.33,22.45,12.56,22.45,11.44-7,11.44-22.45Z"/>
    <path d="M808.92,118.8c6.33-.11,7.78-1.22,7.78-3.89v-36.89h-9.56v-4.22l9.56-2v-2.44c0-8.78,2.11-14.89,6.11-19,3.89-3.89,9.11-5.67,15.56-5.67,10.33,0,15.22,4.56,15.22,9.67,0,4.22-2.56,7.22-6.89,7.22-3.89,0-7.22-2.45-7.22-8,0-1.11,.33-3,.67-4.22-1-.45-1.89-.67-2.78-.67-1.67,0-3,.44-4.33,1.78-2,2-3.11,5.89-3.11,13.89v7.67h14v5.78h-14v37.11c0,2.67,2.11,3.56,10.78,3.89v4h-31.78v-4Z"/>
    <path d="M912.25,96.02h-23.56l-3.78,10c-3.78,9.67-2.78,11.11,6.33,12.67v4.11h-25.45v-4.11c7.22-1.67,9.33-5,13-14.44l21.89-55.67h10l22.22,61.89c1.78,5,3.78,6.89,11.67,8.22v4.11h-37.22v-4.11c10-.56,11.78-2.67,9.89-8.11l-5-14.56Zm-1.56-4.67l-9.22-27.45h-.78l-10.33,27.45h20.33Z"/>
    <path d="M979.91,72.57c2.56-5,5.89-9.45,11.67-9.45,4.33,0,6.78,2.56,6.78,5.89,0,2.78-2,5.22-5.11,5.22-2.56,0-4.89-1.89-4.89-5.56-2.22,.78-4.22,2.89-5.33,5.33,5.11,2.78,8.33,7.44,8.33,13.78,0,10.78-9,17.45-21.45,17.45-2.11,0-4.11-.22-6.11-.56-4.11,1.56-6.22,3-6.22,5,0,2.22,2.22,4,12,4h5c14.89,0,21.67,4.11,21.67,13.78s-10.22,18.11-28,18.11c-13.78,0-23-5.11-23-11.78,0-4.89,4.44-9.11,13-10.33v-.56c-6.89-2.11-9.11-5.11-9.11-9.45,0-4.11,3.11-7.33,9.33-10.22-6.11-2.55-10.22-7.44-10.22-15,0-10.67,9.11-17.33,21.67-17.33,3.56,0,7,.56,10,1.67Zm7,59.22c0-4.22-2.89-6.67-16.11-6.67h-9.22c-4.67,1.33-7.45,3.56-7.45,7.45,0,4.89,5.45,8.89,17,8.89,9.56,0,15.78-4,15.78-9.67Zm-8.44-43.78c0-8.22-3.33-13-9.11-13s-8.11,3.67-8.11,13,3.45,13.11,9.11,13.11,8.11-3.67,8.11-13.11Z"/>
    <path d="M1001.02,118.8c6.33-.11,7.78-1.22,7.78-3.89v-33.33c0-3.33-1.44-5.33-7.78-5.44v-4l20.78-.89v9c3.89-5,9.11-9.33,15-9.33,6.33,0,9.44,4.11,9.44,8.89s-3,8.11-7.22,8.11c-4.56,0-7.56-2.56-7.56-6.67,0-.56,.11-1.44,.22-2.11-3.89-.11-7.56,2.67-9.67,5.33v30.45c0,2.67,1.89,3.67,9.78,3.89v4h-30.78v-4Z"/>
    <path d="M1050.46,118.8c6.33-.11,8-1.22,8-3.89v-33.33c0-3.33-1.56-5.33-8-5.44v-4l21.22-.89v43.67c0,2.67,1.33,3.78,7.78,3.89v4h-29v-4Zm6.33-65.67c0-5,3.22-8.44,8.11-8.44s8.11,3.22,8.11,8.11-3.22,8.33-8.11,8.33-8.11-3-8.11-8Z"/>
    <path d="M1085.79,97.8c0-16.56,11.33-27.33,26.45-27.33,14,0,19.44,7.11,19.44,12.78,0,4.56-2.67,7.89-7.11,7.89-5,0-7.56-2.89-7.56-6.78,0-2.78,1.89-5.33,3.33-6.22-1.11-1.78-4-3.44-7.67-3.44-7.67,0-12.89,6.89-12.89,21.33,0,12.33,5.44,20.78,16.22,20.78,5.67,0,10.45-3,14.22-7.67l2.78,2.33c-4.89,7.45-11.33,12.45-21.78,12.45-15.78,0-25.44-10.45-25.44-26.11Z"/>
    <path d="M1145.13,107.58v-26.89c0-3.44-1.44-4.78-7.89-5v-4l21.11-.44v32.89c0,7.67,3,10.67,9.22,10.67,4.22,0,6.78-1.22,9.89-3v-31.11c0-3.44-1.78-4.67-7.89-4.89v-4l21.11-.55v43.45c0,3,1.56,3.89,7.89,4.11v4h-20.89v-7.33c-5.22,4.67-11.11,8.22-18.22,8.22-8.89,0-14.33-5.78-14.33-16.11Z"/>
    <path d="M1203.34,118.8c6.33-.11,7.78-1.22,7.78-3.89V55.68c0-3.33-1.67-5.33-8.22-5.44v-4l21.45-.89V114.91c0,2.67,1.33,3.78,7.78,3.89v4h-28.78v-4Z"/>
    <path d="M1245.56,108.69v-31h-9.56v-4.22l9.78-2v-13.89l13-4.33v18.45h16.33v5.78h-16.33v30.56c0,5.56,2.22,8.44,6.44,8.44,3.11,0,5.89-2.55,8.33-6.67l3.22,2.11c-3.89,7.89-9,11.78-17,11.78s-14.22-4.33-14.22-15Z"/>
    <path d="M1287.23,107.58v-26.89c0-3.44-1.44-4.78-7.89-5v-4l21.11-.44v32.89c0,7.67,3,10.67,9.22,10.67,4.22,0,6.78-1.22,9.89-3v-31.11c0-3.44-1.78-4.67-7.89-4.89v-4l21.11-.55v43.45c0,3,1.56,3.89,7.89,4.11v4h-20.89v-7.33c-5.22,4.67-11.11,8.22-18.22,8.22-8.89,0-14.33-5.78-14.33-16.11Z"/>
    <path d="M1346.23,118.8c6.33-.11,7.78-1.22,7.78-3.89v-33.33c0-3.33-1.44-5.33-7.78-5.44v-4l20.78-.89v9c3.89-5,9.11-9.33,15-9.33,6.33,0,9.44,4.11,9.44,8.89s-3,8.11-7.22,8.11c-4.56,0-7.56-2.56-7.56-6.67,0-.56,.11-1.44,.22-2.11-3.89-.11-7.56,2.67-9.67,5.33v30.45c0,2.67,1.89,3.67,9.78,3.89v4h-30.78v-4Z"/>
    <path d="M1396.67,111.02c0-4.44,2.33-9.33,7-11.89,8.11-4.45,20.89-5.11,24-6.45v-5c0-9.56-3-12.44-9.33-12.44-2.56,0-4.44,.67-5.89,1.78,.78,1.67,1.45,3.44,1.45,5.44,0,4.11-2.89,7.22-7.67,7.22s-7.22-3-7.22-7.11c0-6.67,8.78-11.67,22.45-11.67s19.22,6,19.22,17.89v22.78c0,5.44,1.22,6.56,7.89,5.44l1,3.11c-4.11,2.22-7.56,3.44-11.67,3.44-6.78,0-8.22-2.55-9.56-7.89h-.44c-4.44,4.67-10.22,8.11-16.67,8.11-10.22,0-14.56-6.56-14.56-12.78Zm31,.11v-14.33c-12.89,2.11-16.78,4.56-16.78,11.33,0,4.89,2.67,8.33,7.67,8.33,3.78,0,7.11-2.55,9.11-5.33Z"/>
    <path d="M1451.66,118.8c6.33-.11,7.78-1.22,7.78-3.89V55.68c0-3.33-1.67-5.33-8.22-5.44v-4l21.45-.89V114.91c0,2.67,1.33,3.78,7.78,3.89v4h-28.78v-4Z"/>
    <path d="M1574.77,83.02c6,0,9.22,4,9.22,8.45,0,4-2.89,7.22-7.11,7.22-3.89,0-6.89-3.11-6.89-6.56,0-.67,.11-1.22,.44-1.78l-.44-.56c-3.44,2.11-6.89,6.89-10,13,5.44,10.11,9.11,13.78,13.33,13.78,3.33,0,4.89-.89,8.22-3.67l2.44,3.33c-6.67,6-11.44,8.33-16.44,8.33-8.67,0-12.22-3.55-16.22-10.56-5.11,6.33-11.67,10.56-20,10.56-15.45,0-21.89-8.89-21.89-17.56,0-9.78,7.22-16.33,19.11-20.11-5.22-6-8.33-10-8.33-16.11,0-10.56,9.11-18,21-18s17.89,6.78,17.89,14-4.78,11.89-15.56,16.56c5.44,4.78,10.33,10.11,13.89,15.78,5-9.78,10.78-16.11,17.33-16.11Zm-51.33,20.33c0,8.22,5.33,13.67,13.11,13.67,5,0,8.67-2.22,12.67-6.56-4.44-7.22-10.67-14.78-17.78-21-5.56,3.67-8,7.89-8,13.89Zm24.89-36.45c0-6-2.89-9.78-8.45-9.78-4.11,0-7.78,3.67-7.78,9.33,0,4.89,2.89,8.89,8.56,14.33,5.89-4.33,7.67-8.22,7.67-13.89Z"/>
  </g>
  <g>
    <path d="M355.72,234.03c8.78-.33,10.44-1.33,10.44-4.78v-55c0-3.44-1.67-4.44-10.44-4.78v-4.22h62.11l.67,23.33-4.67,.11c-4.11-12.45-7.22-18.78-20.22-18.78h-12.11v28.67h4.11c7.67,0,10.44-.89,13.78-11.67h4v28.22h-4c-3.33-10.78-6.11-11.78-13.78-11.78h-4.11v30.11h11.56c15.44,0,19.44-7.22,23.89-20.78l4.78,.11-.89,25.56h-65.11v-4.33Z"/>
    <path d="M430.38,234.36c6.33-.11,7.78-1.22,7.78-3.89v-33.33c0-3.33-1.44-5.33-7.78-5.44v-4l20.78-.89v8.22c5.67-4.44,12.44-8.56,19.67-8.56,8.78,0,13.11,5.67,13.11,16v28c0,2.67,1.33,3.78,7.78,3.89v4h-27.33v-4c4.78-.11,6.33-1.22,6.33-3.89v-24.67c0-7.67-2.67-10.67-8.56-10.67-4.22,0-7.78,1.78-10.78,3.67v31.67c0,2.67,1.56,3.78,6.22,3.89v4h-27.22v-4Z"/>
    <path d="M499.71,197.81c-2-4.78-3.44-6.11-8.67-6.89v-3.89h28.56v3.89c-4.89,.45-6.89,1.45-6.89,3.56,0,.56,.11,1.11,.44,2l11.33,29.56h.44l9.33-24.11c1-2.67,1.44-4.45,1.44-5.89,0-2.78-1.78-4.44-6.56-5.11v-3.89h21v3.89c-3.44,.45-6.33,2.78-8.33,7.67l-16.89,40.45h-8.67l-16.56-41.22Z"/>
    <path d="M552.38,234.36c6.33-.11,8-1.22,8-3.89v-33.33c0-3.33-1.56-5.33-8-5.44v-4l21.22-.89v43.67c0,2.67,1.33,3.78,7.78,3.89v4h-29v-4Zm6.33-65.67c0-5,3.22-8.44,8.11-8.44s8.11,3.22,8.11,8.11-3.22,8.33-8.11,8.33-8.11-3-8.11-8Z"/>
    <path d="M587.49,234.36c6.33-.11,7.78-1.22,7.78-3.89v-33.33c0-3.33-1.44-5.33-7.78-5.44v-4l20.78-.89v9c3.89-5,9.11-9.33,15-9.33,6.33,0,9.44,4.11,9.44,8.89s-3,8.11-7.22,8.11c-4.56,0-7.56-2.56-7.56-6.67,0-.56,.11-1.44,.22-2.11-3.89-.11-7.56,2.67-9.67,5.33v30.45c0,2.67,1.89,3.67,9.78,3.89v4h-30.78v-4Z"/>
    <path d="M637.37,212.81c0-16.11,10.22-26.78,26.33-26.78s26.11,10.22,26.11,26.33-10.11,27.11-26.11,27.11-26.33-10.45-26.33-26.67Zm38.22-.22c0-15.33-4.22-22.22-12.45-22.22s-11.56,6.89-11.56,22.22,4.33,22.45,12.56,22.45,11.45-7,11.45-22.45Z"/>
    <path d="M697.37,234.36c6.33-.11,7.78-1.22,7.78-3.89v-33.33c0-3.33-1.44-5.33-7.78-5.44v-4l20.78-.89v8.22c5.67-4.44,12.45-8.56,19.67-8.56,8.78,0,13.11,5.67,13.11,16v28c0,2.67,1.33,3.78,7.78,3.89v4h-27.33v-4c4.78-.11,6.33-1.22,6.33-3.89v-24.67c0-7.67-2.67-10.67-8.56-10.67-4.22,0-7.78,1.78-10.78,3.67v31.67c0,2.67,1.56,3.78,6.22,3.89v4h-27.22v-4Z"/>
    <path d="M797.81,234.36c4.78-.11,5.67-1.22,5.67-3.89v-24.67c0-7.67-2.89-10.67-8.78-10.67-4.11,0-6.78,1.78-9.78,3.67v31.67c0,2.67,.89,3.78,5.67,3.89v4h-26.67v-4c6.33-.11,7.78-1.22,7.78-3.89v-33.33c0-3.33-1.44-5.33-7.78-5.44v-4l20.78-.89v8.22c5.67-4.44,11.56-8.56,18.78-8.56,6.78,0,10.89,3.56,12.44,9.89,5.78-5.45,12.56-9.89,19.56-9.89,8.78,0,13.11,5.67,13.11,16v28c0,2.67,1.33,3.78,7.78,3.89v4h-26.78v-4c4.78-.11,5.78-1.22,5.78-3.89v-24.67c0-7.67-2.44-10.67-8.33-10.67-3.11,0-6.78,2-10.44,4.67,.11,1.44,.11,2.22,.11,3v27.67c0,2.67,1.11,3.78,6.22,3.89v4h-25.11v-4Z"/>
    <path d="M861.81,213.36c0-16.44,10.22-27.33,25.56-27.33s22.89,12.22,22,26.11h-33.56v.67c0,11.89,5.33,20.11,15.78,20.11,5.89,0,10.89-3.56,15.22-9.11l2.78,2.33c-4.67,7.56-11.11,13.33-22.22,13.33-16.45,0-25.56-10.22-25.56-26.11Zm14.11-5.22l19.78-.33c1.11-9.56-2-17.45-9.11-17.45-6.11,0-9.89,5.89-10.67,17.78Z"/>
    <path d="M917.14,234.36c6.33-.11,7.78-1.22,7.78-3.89v-33.33c0-3.33-1.44-5.33-7.78-5.44v-4l20.78-.89v8.22c5.67-4.44,12.44-8.56,19.67-8.56,8.78,0,13.11,5.67,13.11,16v28c0,2.67,1.33,3.78,7.78,3.89v4h-27.33v-4c4.78-.11,6.33-1.22,6.33-3.89v-24.67c0-7.67-2.67-10.67-8.56-10.67-4.22,0-7.78,1.78-10.78,3.67v31.67c0,2.67,1.56,3.78,6.22,3.89v4h-27.22v-4Z"/>
    <path d="M991.25,224.25v-31h-9.56v-4.22l9.78-2v-13.89l13-4.33v18.45h16.33v5.78h-16.33v30.56c0,5.56,2.22,8.44,6.44,8.44,3.11,0,5.89-2.55,8.33-6.67l3.22,2.11c-3.89,7.89-9,11.78-17,11.78s-14.22-4.33-14.22-15Z"/>
    <path d="M1027.47,226.58c0-4.44,2.33-9.33,7-11.89,8.11-4.45,20.89-5.11,24-6.45v-5c0-9.56-3-12.44-9.33-12.44-2.56,0-4.44,.67-5.89,1.78,.78,1.67,1.45,3.44,1.45,5.44,0,4.11-2.89,7.22-7.67,7.22s-7.22-3-7.22-7.11c0-6.67,8.78-11.67,22.45-11.67s19.22,6,19.22,17.89v22.78c0,5.44,1.22,6.56,7.89,5.44l1,3.11c-4.11,2.22-7.56,3.44-11.67,3.44-6.78,0-8.22-2.55-9.56-7.89h-.44c-4.44,4.67-10.22,8.11-16.67,8.11-10.22,0-14.56-6.56-14.56-12.78Zm31,.11v-14.33c-12.89,2.11-16.78,4.56-16.78,11.33,0,4.89,2.67,8.33,7.67,8.33,3.78,0,7.11-2.55,9.11-5.33Z"/>
    <path d="M1082.46,234.36c6.33-.11,7.78-1.22,7.78-3.89v-59.22c0-3.33-1.67-5.33-8.22-5.44v-4l21.45-.89v69.56c0,2.67,1.33,3.78,7.78,3.89v4h-28.78v-4Z"/>
    <path d="M1140.68,215.47h4.78c5.67,12.56,13.22,19.89,22.45,19.89s13.67-6.56,13.67-12.45c0-7.67-4.89-10.56-17.67-14.78-11.22-3.56-22.33-7.89-22.33-21.56s10.56-23.11,25.45-23.11c5.89,0,11.22,1.45,14.67,3l3.33-3.56h4v22.22h-4.67c-4.44-10.45-10.78-16.89-18.89-16.89-6.78,0-11.78,4.44-11.78,11.67s5.44,10,17.67,13.89c10.22,3.33,21.11,7.67,21.11,21.45,0,12.33-7.33,24.89-26.11,24.89-6,0-12.89-1.22-17.22-3.33l-4.22,3.78h-4.22v-25.11Z"/>
    <path d="M1200.9,213.36c0-16.56,11.33-27.33,26.45-27.33,14,0,19.44,7.11,19.44,12.78,0,4.56-2.67,7.89-7.11,7.89-5,0-7.56-2.89-7.56-6.78,0-2.78,1.89-5.33,3.33-6.22-1.11-1.78-4-3.44-7.67-3.44-7.67,0-12.89,6.89-12.89,21.33,0,12.33,5.44,20.78,16.22,20.78,5.67,0,10.45-3,14.22-7.67l2.78,2.33c-4.89,7.45-11.33,12.45-21.78,12.45-15.78,0-25.44-10.45-25.44-26.11Z"/>
    <path d="M1253.79,234.36c6.33-.11,8-1.22,8-3.89v-33.33c0-3.33-1.56-5.33-8-5.44v-4l21.22-.89v43.67c0,2.67,1.33,3.78,7.78,3.89v4h-29v-4Zm6.33-65.67c0-5,3.22-8.44,8.11-8.44s8.11,3.22,8.11,8.11-3.22,8.33-8.11,8.33-8.11-3-8.11-8Z"/>
    <path d="M1289.12,213.36c0-16.44,10.22-27.33,25.56-27.33s22.89,12.22,22,26.11h-33.56v.67c0,11.89,5.33,20.11,15.78,20.11,5.89,0,10.89-3.56,15.22-9.11l2.78,2.33c-4.67,7.56-11.11,13.33-22.22,13.33-16.45,0-25.56-10.22-25.56-26.11Zm14.11-5.22l19.78-.33c1.11-9.56-2-17.45-9.11-17.45-6.11,0-9.89,5.89-10.67,17.78Z"/>
    <path d="M1344.45,234.36c6.33-.11,7.78-1.22,7.78-3.89v-33.33c0-3.33-1.44-5.33-7.78-5.44v-4l20.78-.89v8.22c5.67-4.44,12.44-8.56,19.67-8.56,8.78,0,13.11,5.67,13.11,16v28c0,2.67,1.33,3.78,7.78,3.89v4h-27.33v-4c4.78-.11,6.33-1.22,6.33-3.89v-24.67c0-7.67-2.67-10.67-8.56-10.67-4.22,0-7.78,1.78-10.78,3.67v31.67c0,2.67,1.56,3.78,6.22,3.89v4h-27.22v-4Z"/>
    <path d="M1411.23,213.36c0-16.56,11.33-27.33,26.45-27.33,14,0,19.44,7.11,19.44,12.78,0,4.56-2.67,7.89-7.11,7.89-5,0-7.56-2.89-7.56-6.78,0-2.78,1.89-5.33,3.33-6.22-1.11-1.78-4-3.44-7.67-3.44-7.67,0-12.89,6.89-12.89,21.33,0,12.33,5.44,20.78,16.22,20.78,5.67,0,10.45-3,14.22-7.67l2.78,2.33c-4.89,7.45-11.33,12.45-21.78,12.45-15.78,0-25.44-10.45-25.44-26.11Z"/>
    <path d="M1464.56,213.36c0-16.44,10.22-27.33,25.56-27.33s22.89,12.22,22,26.11h-33.56v.67c0,11.89,5.33,20.11,15.78,20.11,5.89,0,10.89-3.56,15.22-9.11l2.78,2.33c-4.67,7.56-11.11,13.33-22.22,13.33-16.44,0-25.56-10.22-25.56-26.11Zm14.11-5.22l19.78-.33c1.11-9.56-2-17.45-9.11-17.45-6.11,0-9.89,5.89-10.67,17.78Z"/>
    <path d="M1521.67,221.7h4.22c4.89,8.22,11.22,13,17.11,13s8.44-3.11,8.44-6.89c0-4.78-3.67-7-13.56-9.89-11.56-3.33-16-7.11-16-14.78,0-10.22,8.11-17,20-17,3.78,0,8.44,1.44,10.89,3.11l2.44-3.11h4v15.67h-4.33c-4.33-6.67-8.89-11.11-14.22-11.11-4.67,0-8,2.78-8,6.89,0,4.56,4.11,6.33,12,8.45,11.45,3,17.11,7.11,17.11,15.67,0,9.89-7.56,17.56-19.67,17.56-4.11,0-10.11-1.67-13-3.44l-3.33,3.44h-4.11v-17.56Z"/>
  </g>
  <g>
    <path class="cls-2" d="M1200.56,291.69h-.06c-20.49,0-31.21,14.53-31.21,28.87,0,16.46,12.95,28.87,30.13,28.87,17.75,0,30.64-12.43,30.64-29.56,0-16.07-12.68-28.19-29.5-28.19Zm15.58,30.53c0,13.72-5.91,21.78-15.06,21.78-10.35,0-17.86-10.01-17.86-24.92,0-13.43,6.43-22.01,15.63-22.01h.06c10.47,0,17.23,9.38,17.23,25.14Z"/>
    <path class="cls-2" d="M931.6,291.69h-.06c-20.49,0-31.21,14.53-31.21,28.87,0,16.46,12.95,28.87,30.13,28.87,17.75,0,30.64-12.43,30.64-29.56,0-16.07-12.68-28.19-29.5-28.19Zm15.58,30.53c0,13.72-5.91,22.59-15.06,22.59-10.35,0-17.86-10.82-17.86-25.72,0-13.43,6.43-22.82,15.63-22.82h.06c10.47,0,17.23,10.19,17.23,25.95Z"/>
    <path class="cls-2" d="M1100.91,325.27v21.06s-2.2,.49-2.2,.49c-5.16,1.17-11.59,2.61-17.56,2.61-20.52,0-33.78-11.13-33.78-28.36,0-20.19,17.49-29.39,33.74-29.39,7.34,0,17.95,2.92,17.95,2.92v13.17s-5.09-10.69-17.55-10.69c-8.36,0-15.92,4.88-18.8,13.35-.96,2.96-1.47,6.15-1.47,9.22,0,17.45,10.43,24.46,20.76,24.46,1.55,0,3.63-.25,4.82-.96,1.2-.74,1.81-2.19,1.81-4.3v-11.64c0-7.18-5.18-9.3-5.18-9.3h21.2s-3.75,.93-3.75,7.36Z"/>
    <path class="cls-2" d="M1349.38,325.27v21.06s-2.2,.49-2.2,.49c-5.16,1.17-11.59,2.61-17.56,2.61-20.52,0-33.78-11.13-33.78-28.36,0-20.19,17.49-29.39,33.74-29.39,7.34,0,17.95,2.92,17.95,2.92v13.17s-5.09-10.69-17.55-10.69c-8.36,0-15.92,4.88-18.8,13.35-.96,2.96-1.47,6.15-1.47,9.22,0,17.45,10.43,24.46,20.76,24.46,1.55,0,3.63-.25,4.82-.96,1.2-.74,1.81-2.19,1.81-4.3v-11.64c0-7.18-5.18-9.3-5.18-9.3h21.2s-3.75,.93-3.75,7.36Z"/>
    <path class="cls-2" d="M549.35,292.94c3.31,1.38,2.56,5.72,1.2,9.13-.67,1.88-8.37,20.33-11.92,28.85-1.33-3.67-9.99-28.02-10.44-29.33-1.1-3.11-1.01-5.44,1.74-8.65h-22.16c4.73,2.93,6,5.73,8.72,12.81,4.59,11.84,10.92,28.69,15.92,42.05l.12,.32h5.86l17.55-42.65c1.93-4.76,5.37-10.5,9.34-12.53h-15.92Z"/>
    <path class="cls-2" d="M606.55,339.6c-2.81,3.18-10.23,2.97-11.29,2.97-3.63,0-5.6-.11-7-.76-1.49-.63-1.75-2.58-1.75-6.44v-12.03h6.79c6.13,0,10.33,.34,11.56,3.32v-12.88c-1.17,2.96-5.18,3.49-11.56,3.49h-6.79v-17.72c0-.62,.5-1.11,1.11-1.11h10.11c5.02,0,7.48,.84,9.54,3.36,2.05,2.52,3.37,6.32,3.37,6.32v-15.18h-41.2c1.3,.87,4.68,3.94,4.68,12.49v29.92c-.01,10.57-5.18,12.78-5.18,12.78h42.71v-16.26s-2.29,4.56-5.1,7.73Z"/>
    <path class="cls-2" d="M1141.58,342.58c-3.63,0-5.6-.11-7-.76-1.49-.62-1.75-2.58-1.75-6.44v-12.03h6.79c6.13,0,10.33,.34,11.56,3.32v-12.88c-1.17,2.96-5.18,3.49-11.56,3.49h-6.79v-16.42q0-2.41,3.04-2.41h8.19c5.02,0,7.48,.84,9.54,3.36,2.05,2.52,3.37,6.32,3.37,6.32v-15.18s-41.6,0-41.6,0c1.3,.87,4.68,3.94,4.68,12.49v29.92c-.01,10.57-5.18,12.78-5.18,12.78h43.11s0-16.26,0-16.26c0,0-2.29,4.56-5.1,7.73-2.81,3.18-10.23,2.97-11.29,2.97Z"/>
    <path class="cls-2" d="M1385.84,348.13s-5.17-2.21-5.17-12.78v-29.92c-.01-8.55,3.37-11.62,4.67-12.49h-21.5c1.3,.87,4.68,3.94,4.68,12.49v29.92c-.01,10.57-5.18,12.78-5.18,12.78h22.5Z"/>
    <path class="cls-2" d="M470.99,348.13s-5.17-2.21-5.17-12.78v-29.92c-.01-8.55,3.37-11.62,4.67-12.49h-15.44c1.3,.87,4.68,3.94,4.68,12.49v22.42s-30.7-34.91-30.7-34.91h-13.49c1.3,.87,4.68,3.94,4.68,12.49v29.92c-.01,10.57-5.18,12.78-5.18,12.78h16.52s-5.17-2.21-5.17-12.78v-26.28s32.71,39.06,32.71,39.06h11.89Z"/>
    <path class="cls-2" d="M753.22,348.13s-5.17-2.21-5.17-12.78v-29.92c-.01-8.55,3.37-11.62,4.67-12.49h-21.26c1.3,.87,4.68,3.94,4.68,12.49v29.92c-.01,10.57-5.18,12.78-5.18,12.78h22.26Z"/>
    <path class="cls-2" d="M503.49,348.13s-5.17-2.21-5.17-12.78v-29.92c-.01-8.55,3.37-11.62,4.67-12.49h-21.34c1.3,.87,4.68,3.94,4.68,12.49v29.92c-.01,10.57-5.18,12.78-5.18,12.78h22.34Z"/>
    <path class="cls-2" d="M1449.13,348.13c-4.73-2.93-6-5.73-8.72-12.81-4.59-11.84-10.92-28.69-15.92-42.05l-.12-.32h-6.67l-17.55,42.65c-1.93,4.76-5.37,10.5-9.34,12.53h16.24c-3.31-1.38-2.56-5.72-1.2-9.13,.24-.66,1.16-2.96,2.41-5.99h18.11c1.26,3.49,2.19,6.07,2.33,6.47,1.1,3.11,1.01,5.44-1.74,8.65h22.16Zm-38.3-21.36c3.33-8.07,7.1-17.1,7.1-17.1,0,0,3.26,8.99,6.19,17.1h-13.29Z"/>
    <path class="cls-2" d="M703.55,314.13c-7.87-3.7-10.6-5.87-10.76-10.49-.13-3.79,2.44-7.41,8.08-7.41,8.3,0,12.61,4.57,15.08,9.64l-.02-11.81c-1.4-.46-8.45-2.25-14.16-2.25-12.01,0-20.08,7.05-20.08,16.47s7.36,13.29,16.52,17.68c6.58,3.23,10.24,5.39,10.24,10.36,0,4.64-2.64,8.21-8.19,8.21-9.1,0-15.63-8.38-17.72-13.77l.28,14.05c1.02,.52,5.02,2.52,7.84,3.26,2.51,.66,5.43,1.27,8.43,1.27,12.06,0,21.28-5.91,21.28-17.17,0-8.38-7.55-13.76-16.82-18.03Z"/>
    <path class="cls-2" d="M993.73,348.13s-5.17-2.21-5.17-12.78v-11.76h6.79c6.13,0,10.33,.34,11.56,3.32v-13.12c-1.17,2.96-5.18,3.49-11.56,3.49h-6.79v-16.58q0-2.41,3.04-2.41h8.19c5.02,0,7.48,.84,9.54,3.36,2.05,2.52,3.37,6.32,3.37,6.32v-15.02s-41.36,0-41.36,0c1.3,.87,4.68,3.94,4.68,12.49v29.92c-.01,10.57-5.18,12.78-5.18,12.78h22.89Z"/>
    <path class="cls-2" d="M792.2,300.85q0-2.41,3.04-2.41h2.59c5.02,0,7.48,.84,9.54,3.36,2.05,2.52,3.37,6.32,3.37,6.32v-15.18s-49.47,0-49.47,0v15.18s1.32-3.8,3.37-6.32c2.05-2.52,4.52-3.36,9.54-3.36h2.59q3.04,0,3.04,2.41v34.5c0,10.57-5.17,12.78-5.17,12.78h22.73s-5.17-2.21-5.17-12.78v-34.5Z"/>
    <path class="cls-2" d="M395.85,323.44v-18c.01-8.55-3.37-11.62-4.67-12.49h15.96c-1.3,.87-4.68,3.94-4.68,12.49v17.72s2.49,25.88-21.32,26.29c0,0-24.64,1.35-24.64-19.4v-24.62c.01-8.55-3.37-11.62-4.67-12.49h21.34c-1.3,.87-4.68,3.94-4.68,12.49v20.94c.01,17.58,13.34,17.15,13.34,17.15,0,0,14.01,2.6,14.01-20.08Z"/>
    <path class="cls-2" d="M848.34,293.06s6.46,3.43,4.09,8.49l-8.17,16.08-8.6-15.62c-3.02-5.56,2.54-8.95,2.54-8.95h-23.65s5.04,2.67,8.96,9.33l12.26,21.05v11.9c0,10.57-5.17,12.78-5.17,12.78h22.41s-5.17-2.21-5.17-12.78v-12.55l10.3-19.3c3.89-7.52,10.55-10.44,10.55-10.44h-20.37Z"/>
    <path class="cls-2" d="M654.89,308.88c0,4.23-1.25,7.28-3.94,9.6h0c-1.61,1.42-4.32,2.1-8.29,2.1h-1.62v-19.85c0-1.58,.16-2.34,.56-2.69,.65-.53,1.89-.8,3.68-.8,4.64,0,9.61,3.06,9.61,11.65Zm10.92,26.84c-2.44-4-6.14-9.99-7.97-13.37,3.93-1.64,9.91-5.44,9.91-13.44h0c.03-.41,.05-.81,.05-1.22,0-4.82-2.08-8.92-5.87-11.52-3.5-2.35-7.78-3.22-15.8-3.22h-21.78c1.3,.87,4.68,3.94,4.68,12.49v29.92c-.01,10.57-5.19,12.78-5.19,12.78h22.36s-5.17-2.21-5.17-12.78v-10.47h1.7c2.52,0,3.96,.88,5.33,3.22,.85,1.5,1.67,3.01,2.46,4.47,1.56,2.87,3.57,6.71,5.04,8.95,3.47,5.29,6.27,7.6,16.91,7.26,0,0,1.81-.06,3.2-.18,0,0-3.65-2.64-9.87-12.88Z"/>
    <path class="cls-2" d="M1270.83,308.88c0,4.23-1.25,7.28-3.94,9.6h0c-1.61,1.42-4.32,2.1-8.29,2.1h-1.62v-19.85c0-1.58,.16-2.34,.56-2.69,.65-.53,1.89-.8,3.68-.8,4.64,0,9.61,3.06,9.61,11.65Zm10.92,26.84c-2.44-4-6.14-9.99-7.97-13.37,3.93-1.64,9.91-5.44,9.91-13.44h0c.03-.41,.05-.81,.05-1.22,0-4.82-2.08-8.92-5.87-11.52-3.5-2.35-7.78-3.22-15.8-3.22h-21.78c1.3,.87,4.68,3.94,4.68,12.49v29.92c-.01,10.57-5.19,12.78-5.19,12.78h22.36s-5.17-2.21-5.17-12.78v-10.47h1.7c2.52,0,3.96,.88,5.33,3.22,.85,1.5,1.67,3.01,2.46,4.47,1.56,2.87,3.57,6.71,5.04,8.95,3.47,5.29,6.27,7.6,16.91,7.26,0,0,1.81-.06,3.2-.18,0,0-3.65-2.64-9.87-12.88Z"/>
  </g>
</svg>